<mxfile host="65bd71144e">
    <diagram id="yG_7RN4-8kWZXrr8pTW3" name="Page-1">
        <mxGraphModel dx="579" dy="244" grid="1" gridSize="10" guides="1" tooltips="1" connect="1" arrows="1" fold="1" page="1" pageScale="1" pageWidth="850" pageHeight="1100" math="0" shadow="0">
            <root>
                <mxCell id="0"/>
                <mxCell id="1" parent="0"/>
                <mxCell id="6" value="" style="edgeStyle=none;html=1;" parent="1" source="2" target="5" edge="1">
                    <mxGeometry relative="1" as="geometry"/>
                </mxCell>
                <mxCell id="2" value="เริ่ม" style="ellipse;whiteSpace=wrap;html=1;" parent="1" vertex="1">
                    <mxGeometry x="365" y="50" width="120" height="40" as="geometry"/>
                </mxCell>
                <mxCell id="8" value="" style="edgeStyle=none;html=1;" parent="1" source="5" target="7" edge="1">
                    <mxGeometry relative="1" as="geometry"/>
                </mxCell>
                <mxCell id="5" value="N←0" style="whiteSpace=wrap;html=1;" parent="1" vertex="1">
                    <mxGeometry x="365" y="130" width="120" height="30" as="geometry"/>
                </mxCell>
                <mxCell id="10" value="" style="edgeStyle=none;html=1;" parent="1" source="7" target="9" edge="1">
                    <mxGeometry relative="1" as="geometry"/>
                </mxCell>
                <mxCell id="7" value="นำเข้า N" style="shape=parallelogram;perimeter=parallelogramPerimeter;whiteSpace=wrap;html=1;fixedSize=1;" parent="1" vertex="1">
                    <mxGeometry x="360" y="190" width="125" height="30" as="geometry"/>
                </mxCell>
                <mxCell id="13" value="" style="edgeStyle=none;html=1;" parent="1" source="9" target="12" edge="1">
                    <mxGeometry relative="1" as="geometry"/>
                </mxCell>
                <mxCell id="9" value="i←N" style="whiteSpace=wrap;html=1;" parent="1" vertex="1">
                    <mxGeometry x="360" y="240" width="120" height="30" as="geometry"/>
                </mxCell>
                <mxCell id="15" value="" style="edgeStyle=orthogonalEdgeStyle;html=1;rounded=0;curved=0;entryX=0.5;entryY=0;entryDx=0;entryDy=0;" parent="1" source="12" target="60" edge="1">
                    <mxGeometry relative="1" as="geometry">
                        <mxPoint x="440" y="980" as="targetPoint"/>
                        <Array as="points">
                            <mxPoint x="781" y="350"/>
                            <mxPoint x="781" y="972"/>
                            <mxPoint x="430" y="972"/>
                            <mxPoint x="430" y="1020"/>
                        </Array>
                    </mxGeometry>
                </mxCell>
                <mxCell id="16" value="ไม่" style="edgeLabel;html=1;align=center;verticalAlign=middle;resizable=0;points=[];" parent="15" vertex="1" connectable="0">
                    <mxGeometry x="-0.1273" y="-1" relative="1" as="geometry">
                        <mxPoint as="offset"/>
                    </mxGeometry>
                </mxCell>
                <mxCell id="18" value="" style="edgeStyle=none;html=1;entryX=0.48;entryY=0.015;entryDx=0;entryDy=0;entryPerimeter=0;" parent="1" source="12" target="19" edge="1">
                    <mxGeometry relative="1" as="geometry">
                        <mxPoint x="420" y="450" as="targetPoint"/>
                    </mxGeometry>
                </mxCell>
                <mxCell id="36" value="ใช่" style="edgeLabel;html=1;align=center;verticalAlign=middle;resizable=0;points=[];" parent="18" vertex="1" connectable="0">
                    <mxGeometry x="-0.4779" y="-1" relative="1" as="geometry">
                        <mxPoint as="offset"/>
                    </mxGeometry>
                </mxCell>
                <mxCell id="12" value="i&amp;gt;=2หรือไม่" style="rhombus;whiteSpace=wrap;html=1;" parent="1" vertex="1">
                    <mxGeometry x="380" y="300" width="80" height="80" as="geometry"/>
                </mxCell>
                <mxCell id="21" value="" style="edgeStyle=none;html=1;" parent="1" source="19" target="20" edge="1">
                    <mxGeometry relative="1" as="geometry"/>
                </mxCell>
                <mxCell id="19" value="X←2" style="whiteSpace=wrap;html=1;" parent="1" vertex="1">
                    <mxGeometry x="362.5" y="430" width="120" height="30" as="geometry"/>
                </mxCell>
                <mxCell id="23" value="" style="edgeStyle=orthogonalEdgeStyle;html=1;rounded=0;curved=0;entryX=0.5;entryY=0;entryDx=0;entryDy=0;" parent="1" source="20" target="89" edge="1">
                    <mxGeometry relative="1" as="geometry">
                        <mxPoint x="640" y="490" as="targetPoint"/>
                    </mxGeometry>
                </mxCell>
                <mxCell id="24" value="ไม่" style="edgeLabel;html=1;align=center;verticalAlign=middle;resizable=0;points=[];" parent="23" vertex="1" connectable="0">
                    <mxGeometry x="-0.2038" y="-1" relative="1" as="geometry">
                        <mxPoint as="offset"/>
                    </mxGeometry>
                </mxCell>
                <mxCell id="26" value="" style="edgeStyle=none;html=1;entryX=0.5;entryY=0;entryDx=0;entryDy=0;" parent="1" source="20" target="67" edge="1">
                    <mxGeometry relative="1" as="geometry">
                        <mxPoint x="421" y="660" as="targetPoint"/>
                    </mxGeometry>
                </mxCell>
                <mxCell id="66" value="ใช่" style="edgeLabel;html=1;align=center;verticalAlign=middle;resizable=0;points=[];" parent="26" vertex="1" connectable="0">
                    <mxGeometry x="0.1075" relative="1" as="geometry">
                        <mxPoint as="offset"/>
                    </mxGeometry>
                </mxCell>
                <mxCell id="20" value="x&amp;lt;iหรือไม่" style="rhombus;whiteSpace=wrap;html=1;" parent="1" vertex="1">
                    <mxGeometry x="382.5" y="515" width="80" height="80" as="geometry"/>
                </mxCell>
                <mxCell id="60" value="จบ" style="ellipse;whiteSpace=wrap;html=1;" parent="1" vertex="1">
                    <mxGeometry x="370" y="1020" width="120" height="40" as="geometry"/>
                </mxCell>
                <mxCell id="71" value="" style="edgeStyle=none;html=1;" parent="1" source="67" target="70" edge="1">
                    <mxGeometry relative="1" as="geometry"/>
                </mxCell>
                <mxCell id="72" value="ใช่" style="edgeLabel;html=1;align=center;verticalAlign=middle;resizable=0;points=[];" parent="71" vertex="1" connectable="0">
                    <mxGeometry x="-0.128" y="2" relative="1" as="geometry">
                        <mxPoint as="offset"/>
                    </mxGeometry>
                </mxCell>
                <mxCell id="74" value="" style="edgeStyle=none;html=1;entryX=0.5;entryY=0;entryDx=0;entryDy=0;" parent="1" source="67" target="80" edge="1">
                    <mxGeometry relative="1" as="geometry">
                        <mxPoint x="420" y="780" as="targetPoint"/>
                    </mxGeometry>
                </mxCell>
                <mxCell id="75" value="ไม่" style="edgeLabel;html=1;align=center;verticalAlign=middle;resizable=0;points=[];" parent="74" vertex="1" connectable="0">
                    <mxGeometry x="-0.2333" y="1" relative="1" as="geometry">
                        <mxPoint as="offset"/>
                    </mxGeometry>
                </mxCell>
                <mxCell id="67" value="iหารxลง&lt;div&gt;ตัวหรือไม่&lt;/div&gt;" style="rhombus;whiteSpace=wrap;html=1;" parent="1" vertex="1">
                    <mxGeometry x="380" y="650" width="80" height="80" as="geometry"/>
                </mxCell>
                <mxCell id="97" value="" style="edgeStyle=none;html=1;entryX=0.5;entryY=1;entryDx=0;entryDy=0;" parent="1" source="70" target="84" edge="1">
                    <mxGeometry relative="1" as="geometry">
                        <mxPoint x="260" y="570" as="targetPoint"/>
                    </mxGeometry>
                </mxCell>
                <mxCell id="70" value="ออกจากการทำซ่ำ" style="whiteSpace=wrap;html=1;" parent="1" vertex="1">
                    <mxGeometry x="200" y="670" width="120" height="40" as="geometry"/>
                </mxCell>
                <mxCell id="82" value="" style="edgeStyle=orthogonalEdgeStyle;html=1;rounded=0;" parent="1" edge="1">
                    <mxGeometry relative="1" as="geometry">
                        <mxPoint x="361" y="790" as="sourcePoint"/>
                        <mxPoint x="420" y="487" as="targetPoint"/>
                        <Array as="points">
                            <mxPoint x="151" y="790"/>
                            <mxPoint x="151" y="487"/>
                        </Array>
                    </mxGeometry>
                </mxCell>
                <mxCell id="80" value="x←x+1" style="whiteSpace=wrap;html=1;" parent="1" vertex="1">
                    <mxGeometry x="360" y="770" width="120" height="40" as="geometry"/>
                </mxCell>
                <mxCell id="100" value="" style="edgeStyle=orthogonalEdgeStyle;html=1;rounded=0;entryX=0;entryY=0.5;entryDx=0;entryDy=0;" parent="1" source="83" target="98" edge="1">
                    <mxGeometry relative="1" as="geometry">
                        <mxPoint x="573" y="880" as="targetPoint"/>
                        <Array as="points">
                            <mxPoint x="572" y="795"/>
                        </Array>
                    </mxGeometry>
                </mxCell>
                <mxCell id="83" value="แสดงi" style="shape=parallelogram;perimeter=parallelogramPerimeter;whiteSpace=wrap;html=1;fixedSize=1;size=20;" parent="1" vertex="1">
                    <mxGeometry x="510" y="680" width="125" height="30" as="geometry"/>
                </mxCell>
                <mxCell id="107" value="" style="edgeStyle=none;html=1;" parent="1" source="84" target="106" edge="1">
                    <mxGeometry relative="1" as="geometry"/>
                </mxCell>
                <mxCell id="84" value="" style="ellipse;whiteSpace=wrap;html=1;aspect=fixed;" parent="1" vertex="1">
                    <mxGeometry x="245" y="420" width="30" height="30" as="geometry"/>
                </mxCell>
                <mxCell id="92" value="" style="edgeStyle=orthogonalEdgeStyle;html=1;exitX=0;exitY=0.5;exitDx=0;exitDy=0;rounded=0;" parent="1" source="89" target="83" edge="1">
                    <mxGeometry relative="1" as="geometry"/>
                </mxCell>
                <mxCell id="95" value="" style="edgeStyle=orthogonalEdgeStyle;html=1;rounded=0;entryX=0.596;entryY=0.048;entryDx=0;entryDy=0;entryPerimeter=0;" parent="1" source="89" target="93" edge="1">
                    <mxGeometry relative="1" as="geometry">
                        <mxPoint x="710" y="610" as="targetPoint"/>
                        <Array as="points">
                            <mxPoint x="715" y="610"/>
                        </Array>
                    </mxGeometry>
                </mxCell>
                <mxCell id="89" value="x=iหรือไม่" style="rhombus;whiteSpace=wrap;html=1;" parent="1" vertex="1">
                    <mxGeometry x="590" y="570" width="80" height="80" as="geometry"/>
                </mxCell>
                <mxCell id="102" value="" style="edgeStyle=orthogonalEdgeStyle;html=1;rounded=0;entryX=1;entryY=0.5;entryDx=0;entryDy=0;" parent="1" source="93" target="98" edge="1">
                    <mxGeometry relative="1" as="geometry">
                        <mxPoint x="700" y="800" as="targetPoint"/>
                        <Array as="points">
                            <mxPoint x="702" y="795"/>
                        </Array>
                    </mxGeometry>
                </mxCell>
                <mxCell id="93" value="แสดงi" style="shape=parallelogram;perimeter=parallelogramPerimeter;whiteSpace=wrap;html=1;fixedSize=1;size=20;" parent="1" vertex="1">
                    <mxGeometry x="640" y="680" width="125" height="30" as="geometry"/>
                </mxCell>
                <mxCell id="105" value="" style="edgeStyle=orthogonalEdgeStyle;html=1;rounded=0;entryX=0;entryY=0.5;entryDx=0;entryDy=0;" parent="1" source="98" target="84" edge="1">
                    <mxGeometry relative="1" as="geometry">
                        <mxPoint x="90" y="400" as="targetPoint"/>
                        <Array as="points">
                            <mxPoint x="650" y="850"/>
                            <mxPoint x="90" y="850"/>
                            <mxPoint x="90" y="435"/>
                        </Array>
                    </mxGeometry>
                </mxCell>
                <mxCell id="98" value="" style="ellipse;whiteSpace=wrap;html=1;aspect=fixed;" parent="1" vertex="1">
                    <mxGeometry x="635" y="780" width="30" height="30" as="geometry"/>
                </mxCell>
                <mxCell id="109" value="" style="edgeStyle=orthogonalEdgeStyle;html=1;rounded=0;" parent="1" source="106" edge="1">
                    <mxGeometry relative="1" as="geometry">
                        <mxPoint x="420" y="280" as="targetPoint"/>
                        <Array as="points">
                            <mxPoint x="260" y="280"/>
                        </Array>
                    </mxGeometry>
                </mxCell>
                <mxCell id="106" value="X←2" style="whiteSpace=wrap;html=1;" parent="1" vertex="1">
                    <mxGeometry x="200" y="350" width="120" height="30" as="geometry"/>
                </mxCell>
            </root>
        </mxGraphModel>
    </diagram>
</mxfile>